<svg xmlns:xlink="http://www.w3.org/1999/xlink" version="1.1" class="highcharts-root" style="font-family:&quot;Lucida Grande&quot;, &quot;Lucida Sans Unicode&quot;, Arial, Helvetica, sans-serif;font-size:12px;" xmlns="http://www.w3.org/2000/svg" width="620" height="500" viewBox="0 0 620 500"><desc>Created with Highcharts 6.1.0</desc><defs><clipPath id="highcharts-f9l4m3l-7"><rect x="0" y="0" width="520" height="330" fill="none"></rect></clipPath></defs><rect fill="#ffffff" class="highcharts-background" x="0" y="0" width="620" height="500" rx="0" ry="0"></rect><rect fill="none" class="highcharts-plot-background" x="60" y="90" width="520" height="330"></rect><g class="highcharts-pane-group"></g><g class="highcharts-plot-lines-0"><path fill="none" stroke-dasharray="none" d="M 64.5 90 L 64.5 420"></path></g><g class="highcharts-plot-lines-0"><path fill="none" stroke="#c0c0c0" stroke-width="1" stroke-dasharray="none" visibility="hidden"></path></g><g class="highcharts-grid highcharts-xaxis-grid "><path fill="none" stroke-dasharray="0,0" class="highcharts-grid-line" d="M 64.5 90 L 64.5 420" opacity="1"></path><path fill="none" stroke-dasharray="0,0" class="highcharts-grid-line" d="M 75.5 90 L 75.5 420" opacity="1"></path><path fill="none" stroke-dasharray="0,0" class="highcharts-grid-line" d="M 86.5 90 L 86.5 420" opacity="1"></path><path fill="none" stroke-dasharray="0,0" class="highcharts-grid-line" d="M 96.5 90 L 96.5 420" opacity="1"></path><path fill="none" stroke-dasharray="0,0" class="highcharts-grid-line" d="M 107.5 90 L 107.5 420" opacity="1"></path><path fill="none" stroke-dasharray="0,0" class="highcharts-grid-line" d="M 117.5 90 L 117.5 420" opacity="1"></path><path fill="none" stroke-dasharray="0,0" class="highcharts-grid-line" d="M 128.5 90 L 128.5 420" opacity="1"></path><path fill="none" stroke-dasharray="0,0" class="highcharts-grid-line" d="M 139.5 90 L 139.5 420" opacity="1"></path><path fill="none" stroke-dasharray="0,0" class="highcharts-grid-line" d="M 149.5 90 L 149.5 420" opacity="1"></path><path fill="none" stroke-dasharray="0,0" class="highcharts-grid-line" d="M 160.5 90 L 160.5 420" opacity="1"></path><path fill="none" stroke-dasharray="0,0" class="highcharts-grid-line" d="M 170.5 90 L 170.5 420" opacity="1"></path><path fill="none" stroke-dasharray="0,0" class="highcharts-grid-line" d="M 181.5 90 L 181.5 420" opacity="1"></path><path fill="none" stroke-dasharray="0,0" class="highcharts-grid-line" d="M 192.5 90 L 192.5 420" opacity="1"></path><path fill="none" stroke-dasharray="0,0" class="highcharts-grid-line" d="M 202.5 90 L 202.5 420" opacity="1"></path><path fill="none" stroke-dasharray="0,0" class="highcharts-grid-line" d="M 213.5 90 L 213.5 420" opacity="1"></path><path fill="none" stroke-dasharray="0,0" class="highcharts-grid-line" d="M 223.5 90 L 223.5 420" opacity="1"></path><path fill="none" stroke-dasharray="0,0" class="highcharts-grid-line" d="M 234.5 90 L 234.5 420" opacity="1"></path><path fill="none" stroke-dasharray="0,0" class="highcharts-grid-line" d="M 245.5 90 L 245.5 420" opacity="1"></path><path fill="none" stroke-dasharray="0,0" class="highcharts-grid-line" d="M 255.5 90 L 255.5 420" opacity="1"></path><path fill="none" stroke-dasharray="0,0" class="highcharts-grid-line" d="M 266.5 90 L 266.5 420" opacity="1"></path><path fill="none" stroke-dasharray="0,0" class="highcharts-grid-line" d="M 277.5 90 L 277.5 420" opacity="1"></path><path fill="none" stroke-dasharray="0,0" class="highcharts-grid-line" d="M 287.5 90 L 287.5 420" opacity="1"></path><path fill="none" stroke-dasharray="0,0" class="highcharts-grid-line" d="M 298.5 90 L 298.5 420" opacity="1"></path><path fill="none" stroke-dasharray="0,0" class="highcharts-grid-line" d="M 308.5 90 L 308.5 420" opacity="1"></path><path fill="none" stroke-dasharray="0,0" class="highcharts-grid-line" d="M 319.5 90 L 319.5 420" opacity="1"></path><path fill="none" stroke-dasharray="0,0" class="highcharts-grid-line" d="M 330.5 90 L 330.5 420" opacity="1"></path><path fill="none" stroke-dasharray="0,0" class="highcharts-grid-line" d="M 340.5 90 L 340.5 420" opacity="1"></path><path fill="none" stroke-dasharray="0,0" class="highcharts-grid-line" d="M 351.5 90 L 351.5 420" opacity="1"></path><path fill="none" stroke-dasharray="0,0" class="highcharts-grid-line" d="M 361.5 90 L 361.5 420" opacity="1"></path><path fill="none" stroke-dasharray="0,0" class="highcharts-grid-line" d="M 372.5 90 L 372.5 420" opacity="1"></path><path fill="none" stroke-dasharray="0,0" class="highcharts-grid-line" d="M 383.5 90 L 383.5 420" opacity="1"></path><path fill="none" stroke-dasharray="0,0" class="highcharts-grid-line" d="M 393.5 90 L 393.5 420" opacity="1"></path><path fill="none" stroke-dasharray="0,0" class="highcharts-grid-line" d="M 404.5 90 L 404.5 420" opacity="1"></path><path fill="none" stroke-dasharray="0,0" class="highcharts-grid-line" d="M 415.5 90 L 415.5 420" opacity="1"></path><path fill="none" stroke-dasharray="0,0" class="highcharts-grid-line" d="M 425.5 90 L 425.5 420" opacity="1"></path><path fill="none" stroke-dasharray="0,0" class="highcharts-grid-line" d="M 436.5 90 L 436.5 420" opacity="1"></path><path fill="none" stroke-dasharray="0,0" class="highcharts-grid-line" d="M 446.5 90 L 446.5 420" opacity="1"></path><path fill="none" stroke-dasharray="0,0" class="highcharts-grid-line" d="M 457.5 90 L 457.5 420" opacity="1"></path><path fill="none" stroke-dasharray="0,0" class="highcharts-grid-line" d="M 468.5 90 L 468.5 420" opacity="1"></path><path fill="none" stroke-dasharray="0,0" class="highcharts-grid-line" d="M 478.5 90 L 478.5 420" opacity="1"></path><path fill="none" stroke-dasharray="0,0" class="highcharts-grid-line" d="M 489.5 90 L 489.5 420" opacity="1"></path><path fill="none" stroke-dasharray="0,0" class="highcharts-grid-line" d="M 499.5 90 L 499.5 420" opacity="1"></path><path fill="none" stroke-dasharray="0,0" class="highcharts-grid-line" d="M 510.5 90 L 510.5 420" opacity="1"></path><path fill="none" stroke-dasharray="0,0" class="highcharts-grid-line" d="M 521.5 90 L 521.5 420" opacity="1"></path><path fill="none" stroke-dasharray="0,0" class="highcharts-grid-line" d="M 531.5 90 L 531.5 420" opacity="1"></path><path fill="none" stroke-dasharray="0,0" class="highcharts-grid-line" d="M 542.5 90 L 542.5 420" opacity="1"></path><path fill="none" stroke-dasharray="0,0" class="highcharts-grid-line" d="M 552.5 90 L 552.5 420" opacity="1"></path><path fill="none" stroke-dasharray="0,0" class="highcharts-grid-line" d="M 563.5 90 L 563.5 420" opacity="1"></path><path fill="none" stroke-dasharray="0,0" class="highcharts-grid-line" d="M 574.5 90 L 574.5 420" opacity="1"></path></g><g class="highcharts-grid highcharts-yaxis-grid "><path fill="none" stroke="#c0c0c0" stroke-width="1" stroke-dasharray="1,3" class="highcharts-grid-line" d="M 60 420.5 L 580 420.5" opacity="1"></path><path fill="none" stroke="#c0c0c0" stroke-width="1" stroke-dasharray="1,3" class="highcharts-grid-line" d="M 60 354.5 L 580 354.5" opacity="1"></path><path fill="none" stroke="#c0c0c0" stroke-width="1" stroke-dasharray="1,3" class="highcharts-grid-line" d="M 60 288.5 L 580 288.5" opacity="1"></path><path fill="none" stroke="#c0c0c0" stroke-width="1" stroke-dasharray="1,3" class="highcharts-grid-line" d="M 60 222.5 L 580 222.5" opacity="1"></path><path fill="none" stroke="#c0c0c0" stroke-width="1" stroke-dasharray="1,3" class="highcharts-grid-line" d="M 60 156.5 L 580 156.5" opacity="1"></path><path fill="none" stroke="#c0c0c0" stroke-width="1" stroke-dasharray="1,3" class="highcharts-grid-line" d="M 60 89.5 L 580 89.5" opacity="1"></path></g><rect fill="none" class="highcharts-plot-border" x="60" y="90" width="520" height="330"></rect><g class="highcharts-axis highcharts-xaxis "><path fill="none" class="highcharts-tick" stroke="#C0D0E0" stroke-width="1" d="M 64.5 420 L 64.5 430" opacity="1"></path><path fill="none" class="highcharts-tick" stroke="#C0D0E0" stroke-width="1" d="M 75.5 420 L 75.5 430" opacity="1"></path><path fill="none" class="highcharts-tick" stroke="#C0D0E0" stroke-width="1" d="M 86.5 420 L 86.5 430" opacity="1"></path><path fill="none" class="highcharts-tick" stroke="#C0D0E0" stroke-width="1" d="M 96.5 420 L 96.5 430" opacity="1"></path><path fill="none" class="highcharts-tick" stroke="#C0D0E0" stroke-width="1" d="M 107.5 420 L 107.5 430" opacity="1"></path><path fill="none" class="highcharts-tick" stroke="#C0D0E0" stroke-width="1" d="M 117.5 420 L 117.5 430" opacity="1"></path><path fill="none" class="highcharts-tick" stroke="#C0D0E0" stroke-width="1" d="M 128.5 420 L 128.5 430" opacity="1"></path><path fill="none" class="highcharts-tick" stroke="#C0D0E0" stroke-width="1" d="M 139.5 420 L 139.5 430" opacity="1"></path><path fill="none" class="highcharts-tick" stroke="#C0D0E0" stroke-width="1" d="M 149.5 420 L 149.5 430" opacity="1"></path><path fill="none" class="highcharts-tick" stroke="#C0D0E0" stroke-width="1" d="M 160.5 420 L 160.5 430" opacity="1"></path><path fill="none" class="highcharts-tick" stroke="#C0D0E0" stroke-width="1" d="M 170.5 420 L 170.5 430" opacity="1"></path><path fill="none" class="highcharts-tick" stroke="#C0D0E0" stroke-width="1" d="M 181.5 420 L 181.5 430" opacity="1"></path><path fill="none" class="highcharts-tick" stroke="#C0D0E0" stroke-width="1" d="M 192.5 420 L 192.5 430" opacity="1"></path><path fill="none" class="highcharts-tick" stroke="#C0D0E0" stroke-width="1" d="M 202.5 420 L 202.5 430" opacity="1"></path><path fill="none" class="highcharts-tick" stroke="#C0D0E0" stroke-width="1" d="M 213.5 420 L 213.5 430" opacity="1"></path><path fill="none" class="highcharts-tick" stroke="#C0D0E0" stroke-width="1" d="M 223.5 420 L 223.5 430" opacity="1"></path><path fill="none" class="highcharts-tick" stroke="#C0D0E0" stroke-width="1" d="M 234.5 420 L 234.5 430" opacity="1"></path><path fill="none" class="highcharts-tick" stroke="#C0D0E0" stroke-width="1" d="M 245.5 420 L 245.5 430" opacity="1"></path><path fill="none" class="highcharts-tick" stroke="#C0D0E0" stroke-width="1" d="M 255.5 420 L 255.5 430" opacity="1"></path><path fill="none" class="highcharts-tick" stroke="#C0D0E0" stroke-width="1" d="M 266.5 420 L 266.5 430" opacity="1"></path><path fill="none" class="highcharts-tick" stroke="#C0D0E0" stroke-width="1" d="M 277.5 420 L 277.5 430" opacity="1"></path><path fill="none" class="highcharts-tick" stroke="#C0D0E0" stroke-width="1" d="M 287.5 420 L 287.5 430" opacity="1"></path><path fill="none" class="highcharts-tick" stroke="#C0D0E0" stroke-width="1" d="M 298.5 420 L 298.5 430" opacity="1"></path><path fill="none" class="highcharts-tick" stroke="#C0D0E0" stroke-width="1" d="M 308.5 420 L 308.5 430" opacity="1"></path><path fill="none" class="highcharts-tick" stroke="#C0D0E0" stroke-width="1" d="M 319.5 420 L 319.5 430" opacity="1"></path><path fill="none" class="highcharts-tick" stroke="#C0D0E0" stroke-width="1" d="M 330.5 420 L 330.5 430" opacity="1"></path><path fill="none" class="highcharts-tick" stroke="#C0D0E0" stroke-width="1" d="M 340.5 420 L 340.5 430" opacity="1"></path><path fill="none" class="highcharts-tick" stroke="#C0D0E0" stroke-width="1" d="M 351.5 420 L 351.5 430" opacity="1"></path><path fill="none" class="highcharts-tick" stroke="#C0D0E0" stroke-width="1" d="M 361.5 420 L 361.5 430" opacity="1"></path><path fill="none" class="highcharts-tick" stroke="#C0D0E0" stroke-width="1" d="M 372.5 420 L 372.5 430" opacity="1"></path><path fill="none" class="highcharts-tick" stroke="#C0D0E0" stroke-width="1" d="M 383.5 420 L 383.5 430" opacity="1"></path><path fill="none" class="highcharts-tick" stroke="#C0D0E0" stroke-width="1" d="M 393.5 420 L 393.5 430" opacity="1"></path><path fill="none" class="highcharts-tick" stroke="#C0D0E0" stroke-width="1" d="M 404.5 420 L 404.5 430" opacity="1"></path><path fill="none" class="highcharts-tick" stroke="#C0D0E0" stroke-width="1" d="M 415.5 420 L 415.5 430" opacity="1"></path><path fill="none" class="highcharts-tick" stroke="#C0D0E0" stroke-width="1" d="M 425.5 420 L 425.5 430" opacity="1"></path><path fill="none" class="highcharts-tick" stroke="#C0D0E0" stroke-width="1" d="M 436.5 420 L 436.5 430" opacity="1"></path><path fill="none" class="highcharts-tick" stroke="#C0D0E0" stroke-width="1" d="M 446.5 420 L 446.5 430" opacity="1"></path><path fill="none" class="highcharts-tick" stroke="#C0D0E0" stroke-width="1" d="M 457.5 420 L 457.5 430" opacity="1"></path><path fill="none" class="highcharts-tick" stroke="#C0D0E0" stroke-width="1" d="M 468.5 420 L 468.5 430" opacity="1"></path><path fill="none" class="highcharts-tick" stroke="#C0D0E0" stroke-width="1" d="M 478.5 420 L 478.5 430" opacity="1"></path><path fill="none" class="highcharts-tick" stroke="#C0D0E0" stroke-width="1" d="M 489.5 420 L 489.5 430" opacity="1"></path><path fill="none" class="highcharts-tick" stroke="#C0D0E0" stroke-width="1" d="M 499.5 420 L 499.5 430" opacity="1"></path><path fill="none" class="highcharts-tick" stroke="#C0D0E0" stroke-width="1" d="M 510.5 420 L 510.5 430" opacity="1"></path><path fill="none" class="highcharts-tick" stroke="#C0D0E0" stroke-width="1" d="M 521.5 420 L 521.5 430" opacity="1"></path><path fill="none" class="highcharts-tick" stroke="#C0D0E0" stroke-width="1" d="M 531.5 420 L 531.5 430" opacity="1"></path><path fill="none" class="highcharts-tick" stroke="#C0D0E0" stroke-width="1" d="M 542.5 420 L 542.5 430" opacity="1"></path><path fill="none" class="highcharts-tick" stroke="#C0D0E0" stroke-width="1" d="M 552.5 420 L 552.5 430" opacity="1"></path><path fill="none" class="highcharts-tick" stroke="#C0D0E0" stroke-width="1" d="M 563.5 420 L 563.5 430" opacity="1"></path><path fill="none" class="highcharts-tick" stroke="#C0D0E0" stroke-width="1" d="M 574.5 420 L 574.5 430" opacity="1"></path><path fill="none" class="highcharts-axis-line" stroke="gray" stroke-width="1.2" d="M 60 420.6 L 580 420.6"></path></g><g class="highcharts-axis highcharts-yaxis "><path fill="none" class="highcharts-tick" stroke="#C0D0E0" stroke-width="1" d="M 60 420.5 L 50 420.5" opacity="1"></path><path fill="none" class="highcharts-tick" stroke="#C0D0E0" stroke-width="1" d="M 60 354.5 L 50 354.5" opacity="1"></path><path fill="none" class="highcharts-tick" stroke="#C0D0E0" stroke-width="1" d="M 60 288.5 L 50 288.5" opacity="1"></path><path fill="none" class="highcharts-tick" stroke="#C0D0E0" stroke-width="1" d="M 60 222.5 L 50 222.5" opacity="1"></path><path fill="none" class="highcharts-tick" stroke="#C0D0E0" stroke-width="1" d="M 60 156.5 L 50 156.5" opacity="1"></path><path fill="none" class="highcharts-tick" stroke="#C0D0E0" stroke-width="1" d="M 60 89.5 L 50 89.5" opacity="1"></path><path fill="none" class="highcharts-axis-line" stroke="gray" stroke-width="1" d="M 59.5 90 L 59.5 420"></path></g><g class="highcharts-series-group"><g class="highcharts-series highcharts-series-0 highcharts-line-series " transform="translate(60,90) scale(1 1)" clip-path="url(#highcharts-f9l4m3l-7)"><path fill="none" d="M 5.3061224489796 36.95999999999998 L 15.918367346939 42.240000000000066 L 26.530612244898 46.19999999999999 L 37.142857142857 50.15999999999997 L 47.755102040816 51.480000000000075 L 58.367346938776 47.519999999999925 L 68.979591836735 50.15999999999997 L 79.591836734694 58.0800000000001 L 90.204081632653 58.0800000000001 L 100.81632653061 59.400000000000034 L 111.42857142857 55.440000000000055 L 122.04081632653 52.80000000000001 L 132.65306122449 60.719999999999914 L 143.26530612245 60.719999999999914 L 153.87755102041 73.91999999999996 L 164.48979591837 76.55999999999997 L 175.10204081633 68.64000000000004 L 185.71428571429 67.31999999999994 L 196.32653061224 68.64000000000004 L 206.9387755102 68.64000000000004 L 217.55102040816 68.64000000000004 L 228.16326530612 66 L 238.77551020408 67.31999999999994 L 249.38775510204 73.91999999999996 L 260 79.20000000000002 L 270.61224489796 80.51999999999992 L 281.22448979592 85.80000000000001 L 291.83673469388 79.20000000000002 L 302.44897959184 77.88000000000008 L 313.0612244898 75.24000000000004 L 323.67346938776 73.91999999999996 L 334.28571428571 72.60000000000002 L 344.89795918367 67.31999999999994 L 355.51020408163 69.95999999999998 L 366.12244897959 73.91999999999996 L 376.73469387755 76.55999999999997 L 387.34693877551 76.55999999999997 L 397.95918367347 75.24000000000004 L 408.57142857143 73.91999999999996 L 419.18367346939 72.60000000000002 L 429.79591836735 80.51999999999992 L 440.40816326531 108.24000000000004 L 451.02040816327 110.88000000000008 L 461.63265306122 110.88000000000008 L 472.24489795918 109.55999999999997 L 482.85714285714 106.91999999999993 L 493.4693877551 101.64000000000004 L 504.08163265306 97.68000000000009 L 514.69387755102 97.68000000000009" class="highcharts-graph" stroke="rgb(35, 139, 69)" stroke-width="1.5" stroke-dasharray="6,4.5"></path></g><g class="highcharts-markers highcharts-series-0 highcharts-line-series " transform="translate(60,90) scale(1 1)" clip-path="none"></g><g class="highcharts-series highcharts-series-1 highcharts-line-series " transform="translate(60,90) scale(1 1)" clip-path="url(#highcharts-f9l4m3l-7)"><path fill="none" d="M 5.3061224489796 118.80000000000001 L 15.918367346939 125.4 L 26.530612244898 134.64000000000004 L 37.142857142857 139.91999999999993 L 47.755102040816 141.24000000000004 L 58.367346938776 139.91999999999993 L 68.979591836735 142.55999999999997 L 79.591836734694 153.11999999999995 L 90.204081632653 154.44000000000005 L 100.81632653061 154.44000000000005 L 111.42857142857 151.8 L 122.04081632653 150.48000000000008 L 132.65306122449 157.0800000000001 L 143.26530612245 159.71999999999994 L 153.87755102041 174.24000000000004 L 164.48979591837 176.88000000000008 L 175.10204081633 166.31999999999994 L 185.71428571429 163.6800000000001 L 196.32653061224 163.6800000000001 L 206.9387755102 162.35999999999999 L 217.55102040816 161.04000000000005 L 228.16326530612 158.4 L 238.77551020408 157.0800000000001 L 249.38775510204 163.6800000000001 L 260 166.31999999999994 L 270.61224489796 166.31999999999994 L 281.22448979592 183.48000000000008 L 291.83673469388 179.51999999999992 L 302.44897959184 175.55999999999997 L 313.0612244898 170.2800000000001 L 323.67346938776 167.64000000000004 L 334.28571428571 163.6800000000001 L 344.89795918367 155.75999999999996 L 355.51020408163 159.71999999999994 L 366.12244897959 163.6800000000001 L 376.73469387755 167.64000000000004 L 387.34693877551 168.95999999999998 L 397.95918367347 163.6800000000001 L 408.57142857143 159.71999999999994 L 419.18367346939 159.71999999999994 L 429.79591836735 163.6800000000001 L 440.40816326531 191.4 L 451.02040816327 194.04000000000005 L 461.63265306122 191.4 L 472.24489795918 190.08000000000007 L 482.85714285714 187.44000000000005 L 493.4693877551 183.48000000000008 L 504.08163265306 176.88000000000008 L 514.69387755102 175.55999999999997" class="highcharts-graph" stroke="rgb(153, 0, 0)" stroke-width="1.5" stroke-linejoin="round" stroke-linecap="round"></path></g><g class="highcharts-markers highcharts-series-1 highcharts-line-series " transform="translate(60,90) scale(1 1)" clip-path="none"></g><g class="highcharts-series highcharts-series-2 highcharts-line-series " transform="translate(60,90) scale(1 1)" clip-path="url(#highcharts-f9l4m3l-7)"><path fill="none" d="M 5.3061224489796 262.68000000000006 L 15.918367346939 265.31999999999994 L 26.530612244898 278.5199999999999 L 37.142857142857 287.76 L 47.755102040816 289.0800000000001 L 58.367346938776 287.76 L 68.979591836735 287.76 L 79.591836734694 298.31999999999994 L 90.204081632653 297 L 100.81632653061 295.68000000000006 L 111.42857142857 289.0800000000001 L 122.04081632653 286.44000000000005 L 132.65306122449 287.76 L 143.26530612245 291.7199999999999 L 153.87755102041 304.9199999999999 L 164.48979591837 304.9199999999999 L 175.10204081633 291.7199999999999 L 185.71428571429 285.11999999999995 L 196.32653061224 282.4800000000001 L 206.9387755102 278.5199999999999 L 217.55102040816 273.24 L 228.16326530612 270.6 L 238.77551020408 266.64000000000004 L 249.38775510204 271.91999999999996 L 260 269.2800000000001 L 270.61224489796 267.96 L 281.22448979592 299.64000000000004 L 291.83673469388 295.68000000000006 L 302.44897959184 289.0800000000001 L 313.0612244898 282.4800000000001 L 323.67346938776 275.8800000000001 L 334.28571428571 267.96 L 344.89795918367 258.7199999999999 L 355.51020408163 261.35999999999996 L 366.12244897959 267.96 L 376.73469387755 271.91999999999996 L 387.34693877551 273.24 L 397.95918367347 266.64000000000004 L 408.57142857143 260.04 L 419.18367346939 260.04 L 429.79591836735 258.7199999999999 L 440.40816326531 283.8 L 451.02040816327 285.11999999999995 L 461.63265306122 283.8 L 472.24489795918 281.15999999999997 L 482.85714285714 277.2 L 493.4693877551 274.55999999999995 L 504.08163265306 266.64000000000004 L 514.69387755102 262.68000000000006" class="highcharts-graph" stroke="rgb(0, 102, 204)" stroke-width="1.5" stroke-dasharray="12,4.5"></path></g><g class="highcharts-markers highcharts-series-2 highcharts-line-series " transform="translate(60,90) scale(1 1)" clip-path="none"></g></g><g class="highcharts-button highcharts-contextbutton" style="cursor:pointer;" stroke-linecap="round" transform="translate(585,475)"><title>Download chart image</title><rect fill="#ffffff" class=" highcharts-button-box" x="0.5" y="0.5" width="24" height="24" rx="2" ry="2" stroke="none" stroke-width="1"></rect><path fill="#666666" d="M 12 2 L 14 2 L 14 9 L 18 9 L 13 14 L 8 9 L 12 9 z M 3 16.9 L 3 21 L 22 21 L 22 17 L 22 17 L 22 21 L 3 21 L 3 16.9 z" class="highcharts-button-symbol" stroke="#666666" stroke-width="2"></path><text x="0" style="font-weight:normal;color:#333333;fill:#333333;" y="12"></text></g><text x="10" text-anchor="start" class="highcharts-title" style="color:#000000;font-size:14px;font-family:arial;font-weight:bold;fill:#000000;" y="21"><tspan>Percentage of employed people working full time, by sex, 1968–2016</tspan></text><text x="10" text-anchor="start" class="highcharts-subtitle" style="color:#000000;font-family:arial;font-weight:normal;font-size:12px;fill:#000000;" y="40"></text><g class="highcharts-legend" transform="translate(60,25)"><rect fill="none" class="highcharts-legend-box" rx="0" ry="0" x="0" y="0" width="558" height="53" visibility="visible"></rect><g><g><g class="highcharts-legend-item highcharts-line-series highcharts-color-undefined highcharts-series-0" transform="translate(8,3)"><path fill="none" d="M 0 11 L 16 11" class="highcharts-graph" stroke-dasharray="6,4.5" stroke="rgb(35, 139, 69)" stroke-width="1.5"></path><text x="21" style="color:#000;font-size:12px;font-weight:bold;cursor:pointer;font-family:Calibri, Arial, Helvetica, sans-serif;fill:#000;" text-anchor="start" y="15"><tspan>Men, percentage usually employed full time</tspan></text></g><g class="highcharts-legend-item highcharts-line-series highcharts-color-undefined highcharts-series-1" transform="translate(8,17)"><path fill="none" d="M 0 11 L 16 11" class="highcharts-graph" stroke="rgb(153, 0, 0)" stroke-width="1.5"></path><text x="21" y="15" style="color:#000;font-size:12px;font-weight:bold;cursor:pointer;font-family:Calibri, Arial, Helvetica, sans-serif;fill:#000;" text-anchor="start"><tspan>Total, percentage usually employed full time</tspan></text></g><g class="highcharts-legend-item highcharts-line-series highcharts-color-undefined highcharts-series-2" transform="translate(8,31)"><path fill="none" d="M 0 11 L 16 11" class="highcharts-graph" stroke-dasharray="12,4.5" stroke="rgb(0, 102, 204)" stroke-width="1.5"></path><text x="21" y="15" style="color:#000;font-size:12px;font-weight:bold;cursor:pointer;font-family:Calibri, Arial, Helvetica, sans-serif;fill:#000;" text-anchor="start"><tspan>Women, percentage usually employed full time</tspan></text></g></g></g></g><g class="highcharts-axis-labels highcharts-xaxis-labels "><text x="65.30612244898" style="color:#000000;cursor:default;font-size:12px;font-family:Calibri, Arial, Helvetica, sans-serif;font-weight:normal;background-color:#fff;fill:#000000;" text-anchor="middle" transform="translate(0,0)" y="440" opacity="1">1968</text><text x="0" style="color:#000000;cursor:default;font-size:12px;font-family:Calibri, Arial, Helvetica, sans-serif;font-weight:normal;background-color:#fff;fill:#000000;" text-anchor="middle" transform="translate(0,0)" y="-9999">1969</text><text x="0" style="color:#000000;cursor:default;font-size:12px;font-family:Calibri, Arial, Helvetica, sans-serif;font-weight:normal;background-color:#fff;fill:#000000;" text-anchor="middle" transform="translate(0,0)" y="-9999">1970</text><text x="0" style="color:#000000;cursor:default;font-size:12px;font-family:Calibri, Arial, Helvetica, sans-serif;font-weight:normal;background-color:#fff;fill:#000000;" text-anchor="middle" transform="translate(0,0)" y="-9999">1971</text><text x="0" style="color:#000000;cursor:default;font-size:12px;font-family:Calibri, Arial, Helvetica, sans-serif;font-weight:normal;background-color:#fff;fill:#000000;" text-anchor="middle" transform="translate(0,0)" y="-9999">1972</text><text x="118.36734693878" style="color:#000000;cursor:default;font-size:12px;font-family:Calibri, Arial, Helvetica, sans-serif;font-weight:normal;background-color:#fff;fill:#000000;" text-anchor="middle" transform="translate(0,0)" y="440" opacity="1">1973</text><text x="0" style="color:#000000;cursor:default;font-size:12px;font-family:Calibri, Arial, Helvetica, sans-serif;font-weight:normal;background-color:#fff;fill:#000000;" text-anchor="middle" transform="translate(0,0)" y="-9999">1974</text><text x="0" style="color:#000000;cursor:default;font-size:12px;font-family:Calibri, Arial, Helvetica, sans-serif;font-weight:normal;background-color:#fff;fill:#000000;" text-anchor="middle" transform="translate(0,0)" y="-9999">1975</text><text x="0" style="color:#000000;cursor:default;font-size:12px;font-family:Calibri, Arial, Helvetica, sans-serif;font-weight:normal;background-color:#fff;fill:#000000;" text-anchor="middle" transform="translate(0,0)" y="-9999">1976</text><text x="0" style="color:#000000;cursor:default;font-size:12px;font-family:Calibri, Arial, Helvetica, sans-serif;font-weight:normal;background-color:#fff;fill:#000000;" text-anchor="middle" transform="translate(0,0)" y="-9999">1977</text><text x="171.42857142857" style="color:#000000;cursor:default;font-size:12px;font-family:Calibri, Arial, Helvetica, sans-serif;font-weight:normal;background-color:#fff;fill:#000000;" text-anchor="middle" transform="translate(0,0)" y="440" opacity="1">1978</text><text x="0" style="color:#000000;cursor:default;font-size:12px;font-family:Calibri, Arial, Helvetica, sans-serif;font-weight:normal;background-color:#fff;fill:#000000;" text-anchor="middle" transform="translate(0,0)" y="-9999">1979</text><text x="0" style="color:#000000;cursor:default;font-size:12px;font-family:Calibri, Arial, Helvetica, sans-serif;font-weight:normal;background-color:#fff;fill:#000000;" text-anchor="middle" transform="translate(0,0)" y="-9999">1980</text><text x="0" style="color:#000000;cursor:default;font-size:12px;font-family:Calibri, Arial, Helvetica, sans-serif;font-weight:normal;background-color:#fff;fill:#000000;" text-anchor="middle" transform="translate(0,0)" y="-9999">1981</text><text x="0" style="color:#000000;cursor:default;font-size:12px;font-family:Calibri, Arial, Helvetica, sans-serif;font-weight:normal;background-color:#fff;fill:#000000;" text-anchor="middle" transform="translate(0,0)" y="-9999">1982</text><text x="224.48979591837" style="color:#000000;cursor:default;font-size:12px;font-family:Calibri, Arial, Helvetica, sans-serif;font-weight:normal;background-color:#fff;fill:#000000;" text-anchor="middle" transform="translate(0,0)" y="440" opacity="1">1983</text><text x="0" style="color:#000000;cursor:default;font-size:12px;font-family:Calibri, Arial, Helvetica, sans-serif;font-weight:normal;background-color:#fff;fill:#000000;" text-anchor="middle" transform="translate(0,0)" y="-9999">1984</text><text x="0" style="color:#000000;cursor:default;font-size:12px;font-family:Calibri, Arial, Helvetica, sans-serif;font-weight:normal;background-color:#fff;fill:#000000;" text-anchor="middle" transform="translate(0,0)" y="-9999">1985</text><text x="0" style="color:#000000;cursor:default;font-size:12px;font-family:Calibri, Arial, Helvetica, sans-serif;font-weight:normal;background-color:#fff;fill:#000000;" text-anchor="middle" transform="translate(0,0)" y="-9999">1986</text><text x="0" style="color:#000000;cursor:default;font-size:12px;font-family:Calibri, Arial, Helvetica, sans-serif;font-weight:normal;background-color:#fff;fill:#000000;" text-anchor="middle" transform="translate(0,0)" y="-9999">1987</text><text x="277.55102040816" style="color:#000000;cursor:default;font-size:12px;font-family:Calibri, Arial, Helvetica, sans-serif;font-weight:normal;background-color:#fff;fill:#000000;" text-anchor="middle" transform="translate(0,0)" y="440" opacity="1">1988</text><text x="0" style="color:#000000;cursor:default;font-size:12px;font-family:Calibri, Arial, Helvetica, sans-serif;font-weight:normal;background-color:#fff;fill:#000000;" text-anchor="middle" transform="translate(0,0)" y="-9999">1989</text><text x="0" style="color:#000000;cursor:default;font-size:12px;font-family:Calibri, Arial, Helvetica, sans-serif;font-weight:normal;background-color:#fff;fill:#000000;" text-anchor="middle" transform="translate(0,0)" y="-9999">1990</text><text x="0" style="color:#000000;cursor:default;font-size:12px;font-family:Calibri, Arial, Helvetica, sans-serif;font-weight:normal;background-color:#fff;fill:#000000;" text-anchor="middle" transform="translate(0,0)" y="-9999">1991</text><text x="0" style="color:#000000;cursor:default;font-size:12px;font-family:Calibri, Arial, Helvetica, sans-serif;font-weight:normal;background-color:#fff;fill:#000000;" text-anchor="middle" transform="translate(0,0)" y="-9999">1992</text><text x="330.61224489796" style="color:#000000;cursor:default;font-size:12px;font-family:Calibri, Arial, Helvetica, sans-serif;font-weight:normal;background-color:#fff;fill:#000000;" text-anchor="middle" transform="translate(0,0)" y="440" opacity="1">1993</text><text x="0" style="color:#000000;cursor:default;font-size:12px;font-family:Calibri, Arial, Helvetica, sans-serif;font-weight:normal;background-color:#fff;fill:#000000;" text-anchor="middle" transform="translate(0,0)" y="-9999">1994</text><text x="0" style="color:#000000;cursor:default;font-size:12px;font-family:Calibri, Arial, Helvetica, sans-serif;font-weight:normal;background-color:#fff;fill:#000000;" text-anchor="middle" transform="translate(0,0)" y="-9999">1995</text><text x="0" style="color:#000000;cursor:default;font-size:12px;font-family:Calibri, Arial, Helvetica, sans-serif;font-weight:normal;background-color:#fff;fill:#000000;" text-anchor="middle" transform="translate(0,0)" y="-9999">1996</text><text x="0" style="color:#000000;cursor:default;font-size:12px;font-family:Calibri, Arial, Helvetica, sans-serif;font-weight:normal;background-color:#fff;fill:#000000;" text-anchor="middle" transform="translate(0,0)" y="-9999">1997</text><text x="383.67346938776" style="color:#000000;cursor:default;font-size:12px;font-family:Calibri, Arial, Helvetica, sans-serif;font-weight:normal;background-color:#fff;fill:#000000;" text-anchor="middle" transform="translate(0,0)" y="440" opacity="1">1998</text><text x="0" style="color:#000000;cursor:default;font-size:12px;font-family:Calibri, Arial, Helvetica, sans-serif;font-weight:normal;background-color:#fff;fill:#000000;" text-anchor="middle" transform="translate(0,0)" y="-9999">1999</text><text x="0" style="color:#000000;cursor:default;font-size:12px;font-family:Calibri, Arial, Helvetica, sans-serif;font-weight:normal;background-color:#fff;fill:#000000;" text-anchor="middle" transform="translate(0,0)" y="-9999">2000</text><text x="0" style="color:#000000;cursor:default;font-size:12px;font-family:Calibri, Arial, Helvetica, sans-serif;font-weight:normal;background-color:#fff;fill:#000000;" text-anchor="middle" transform="translate(0,0)" y="-9999">2001</text><text x="0" style="color:#000000;cursor:default;font-size:12px;font-family:Calibri, Arial, Helvetica, sans-serif;font-weight:normal;background-color:#fff;fill:#000000;" text-anchor="middle" transform="translate(0,0)" y="-9999">2002</text><text x="436.73469387755" style="color:#000000;cursor:default;font-size:12px;font-family:Calibri, Arial, Helvetica, sans-serif;font-weight:normal;background-color:#fff;fill:#000000;" text-anchor="middle" transform="translate(0,0)" y="440" opacity="1">2003</text><text x="0" style="color:#000000;cursor:default;font-size:12px;font-family:Calibri, Arial, Helvetica, sans-serif;font-weight:normal;background-color:#fff;fill:#000000;" text-anchor="middle" transform="translate(0,0)" y="-9999">2004</text><text x="0" style="color:#000000;cursor:default;font-size:12px;font-family:Calibri, Arial, Helvetica, sans-serif;font-weight:normal;background-color:#fff;fill:#000000;" text-anchor="middle" transform="translate(0,0)" y="-9999">2005</text><text x="0" style="color:#000000;cursor:default;font-size:12px;font-family:Calibri, Arial, Helvetica, sans-serif;font-weight:normal;background-color:#fff;fill:#000000;" text-anchor="middle" transform="translate(0,0)" y="-9999">2006</text><text x="0" style="color:#000000;cursor:default;font-size:12px;font-family:Calibri, Arial, Helvetica, sans-serif;font-weight:normal;background-color:#fff;fill:#000000;" text-anchor="middle" transform="translate(0,0)" y="-9999">2007</text><text x="489.79591836735" style="color:#000000;cursor:default;font-size:12px;font-family:Calibri, Arial, Helvetica, sans-serif;font-weight:normal;background-color:#fff;fill:#000000;" text-anchor="middle" transform="translate(0,0)" y="440" opacity="1">2008</text><text x="0" style="color:#000000;cursor:default;font-size:12px;font-family:Calibri, Arial, Helvetica, sans-serif;font-weight:normal;background-color:#fff;fill:#000000;" text-anchor="middle" transform="translate(0,0)" y="-9999">2009</text><text x="0" style="color:#000000;cursor:default;font-size:12px;font-family:Calibri, Arial, Helvetica, sans-serif;font-weight:normal;background-color:#fff;fill:#000000;" text-anchor="middle" transform="translate(0,0)" y="-9999">2010</text><text x="0" style="color:#000000;cursor:default;font-size:12px;font-family:Calibri, Arial, Helvetica, sans-serif;font-weight:normal;background-color:#fff;fill:#000000;" text-anchor="middle" transform="translate(0,0)" y="-9999">2011</text><text x="0" style="color:#000000;cursor:default;font-size:12px;font-family:Calibri, Arial, Helvetica, sans-serif;font-weight:normal;background-color:#fff;fill:#000000;" text-anchor="middle" transform="translate(0,0)" y="-9999">2012</text><text x="542.85714285714" style="color:#000000;cursor:default;font-size:12px;font-family:Calibri, Arial, Helvetica, sans-serif;font-weight:normal;background-color:#fff;fill:#000000;" text-anchor="middle" transform="translate(0,0)" y="440" opacity="1">2013</text><text x="0" style="color:#000000;cursor:default;font-size:12px;font-family:Calibri, Arial, Helvetica, sans-serif;font-weight:normal;background-color:#fff;fill:#000000;" text-anchor="middle" transform="translate(0,0)" y="-9999">2014</text><text x="0" style="color:#000000;cursor:default;font-size:12px;font-family:Calibri, Arial, Helvetica, sans-serif;font-weight:normal;background-color:#fff;fill:#000000;" text-anchor="middle" transform="translate(0,0)" y="-9999">2015</text><text x="0" style="color:#000000;cursor:default;font-size:12px;font-family:Calibri, Arial, Helvetica, sans-serif;font-weight:normal;background-color:#fff;fill:#000000;" text-anchor="middle" transform="translate(0,0)" y="-9999">2016</text></g><g class="highcharts-axis-labels highcharts-yaxis-labels "><text x="45" style="color:#000000;cursor:default;font-size:12px;font-family:Calibri, Arial, Helvetica, sans-serif;font-weight:normal;background-color:#fff;fill:#000000;" text-anchor="end" transform="translate(0,0)" y="425" opacity="1">70%</text><text x="45" style="color:#000000;cursor:default;font-size:12px;font-family:Calibri, Arial, Helvetica, sans-serif;font-weight:normal;background-color:#fff;fill:#000000;" text-anchor="end" transform="translate(0,0)" y="359" opacity="1">75%</text><text x="45" style="color:#000000;cursor:default;font-size:12px;font-family:Calibri, Arial, Helvetica, sans-serif;font-weight:normal;background-color:#fff;fill:#000000;" text-anchor="end" transform="translate(0,0)" y="293" opacity="1">80%</text><text x="45" style="color:#000000;cursor:default;font-size:12px;font-family:Calibri, Arial, Helvetica, sans-serif;font-weight:normal;background-color:#fff;fill:#000000;" text-anchor="end" transform="translate(0,0)" y="227" opacity="1">85%</text><text x="45" style="color:#000000;cursor:default;font-size:12px;font-family:Calibri, Arial, Helvetica, sans-serif;font-weight:normal;background-color:#fff;fill:#000000;" text-anchor="end" transform="translate(0,0)" y="161" opacity="1">90%</text><text x="45" style="color:#000000;cursor:default;font-size:12px;font-family:Calibri, Arial, Helvetica, sans-serif;font-weight:normal;background-color:#fff;fill:#000000;" text-anchor="end" transform="translate(0,0)" y="95" opacity="1">95%</text></g><text x="10" class="highcharts-credits" text-anchor="start" style="cursor:default;color:#2C2C2C;font-size:9px;fill:#2C2C2C;" y="478"><tspan>Click legend items to change data display. Hover over chart to view data.</tspan><tspan x="10" dy="12">Source: U.S. Bureau of Labor Statistics.</tspan></text></svg>