<svg xmlns:xlink="http://www.w3.org/1999/xlink" version="1.1" class="highcharts-root" style="font-family:&quot;Lucida Grande&quot;, &quot;Lucida Sans Unicode&quot;, Arial, Helvetica, sans-serif;font-size:12px;" xmlns="http://www.w3.org/2000/svg" width="620" height="430" viewBox="0 0 620 430"><desc>Created with Highcharts 6.1.0</desc><defs><clipPath id="highcharts-dimxl6b-7"><rect x="0" y="0" width="510" height="265" fill="none"></rect></clipPath></defs><rect fill="#ffffff" class="highcharts-background" x="0" y="0" width="620" height="430" rx="0" ry="0"></rect><rect fill="none" class="highcharts-plot-background" x="70" y="90" width="510" height="265"></rect><g class="highcharts-pane-group"></g><g class="highcharts-plot-lines-0"><path fill="none" stroke-dasharray="none" d="M 112.5 90 L 112.5 355"></path></g><g class="highcharts-plot-lines-0"><path fill="none" stroke="#c0c0c0" stroke-width="1" stroke-dasharray="none" d="M 70 355.5 L 580 355.5"></path></g><g class="highcharts-grid highcharts-xaxis-grid "><path fill="none" stroke-dasharray="0,0" class="highcharts-grid-line" d="M 112.5 90 L 112.5 355" opacity="1"></path><path fill="none" stroke-dasharray="0,0" class="highcharts-grid-line" d="M 197.5 90 L 197.5 355" opacity="1"></path><path fill="none" stroke-dasharray="0,0" class="highcharts-grid-line" d="M 282.5 90 L 282.5 355" opacity="1"></path><path fill="none" stroke-dasharray="0,0" class="highcharts-grid-line" d="M 367.5 90 L 367.5 355" opacity="1"></path><path fill="none" stroke-dasharray="0,0" class="highcharts-grid-line" d="M 452.5 90 L 452.5 355" opacity="1"></path><path fill="none" stroke-dasharray="0,0" class="highcharts-grid-line" d="M 537.5 90 L 537.5 355" opacity="1"></path></g><g class="highcharts-grid highcharts-yaxis-grid "><path fill="none" stroke="#c0c0c0" stroke-width="1" stroke-dasharray="1,3" class="highcharts-grid-line" d="M 70 355.5 L 580 355.5" opacity="1"></path><path fill="none" stroke="#c0c0c0" stroke-width="1" stroke-dasharray="1,3" class="highcharts-grid-line" d="M 70 302.5 L 580 302.5" opacity="1"></path><path fill="none" stroke="#c0c0c0" stroke-width="1" stroke-dasharray="1,3" class="highcharts-grid-line" d="M 70 249.5 L 580 249.5" opacity="1"></path><path fill="none" stroke="#c0c0c0" stroke-width="1" stroke-dasharray="1,3" class="highcharts-grid-line" d="M 70 196.5 L 580 196.5" opacity="1"></path><path fill="none" stroke="#c0c0c0" stroke-width="1" stroke-dasharray="1,3" class="highcharts-grid-line" d="M 70 143.5 L 580 143.5" opacity="1"></path><path fill="none" stroke="#c0c0c0" stroke-width="1" stroke-dasharray="1,3" class="highcharts-grid-line" d="M 70 89.5 L 580 89.5" opacity="1"></path></g><rect fill="none" class="highcharts-plot-border" x="70" y="90" width="510" height="265"></rect><g class="highcharts-axis highcharts-xaxis "><path fill="none" class="highcharts-tick" stroke="#C0D0E0" stroke-width="1" d="M 112.5 355 L 112.5 365" opacity="1"></path><path fill="none" class="highcharts-tick" stroke="#C0D0E0" stroke-width="1" d="M 197.5 355 L 197.5 365" opacity="1"></path><path fill="none" class="highcharts-tick" stroke="#C0D0E0" stroke-width="1" d="M 282.5 355 L 282.5 365" opacity="1"></path><path fill="none" class="highcharts-tick" stroke="#C0D0E0" stroke-width="1" d="M 367.5 355 L 367.5 365" opacity="1"></path><path fill="none" class="highcharts-tick" stroke="#C0D0E0" stroke-width="1" d="M 452.5 355 L 452.5 365" opacity="1"></path><path fill="none" class="highcharts-tick" stroke="#C0D0E0" stroke-width="1" d="M 537.5 355 L 537.5 365" opacity="1"></path><path fill="none" class="highcharts-axis-line" stroke="gray" stroke-width="1.2" d="M 70 355.6 L 580 355.6"></path></g><g class="highcharts-axis highcharts-yaxis "><path fill="none" class="highcharts-tick" stroke="#C0D0E0" stroke-width="1" d="M 70 355.5 L 60 355.5" opacity="1"></path><path fill="none" class="highcharts-tick" stroke="#C0D0E0" stroke-width="1" d="M 70 302.5 L 60 302.5" opacity="1"></path><path fill="none" class="highcharts-tick" stroke="#C0D0E0" stroke-width="1" d="M 70 249.5 L 60 249.5" opacity="1"></path><path fill="none" class="highcharts-tick" stroke="#C0D0E0" stroke-width="1" d="M 70 196.5 L 60 196.5" opacity="1"></path><path fill="none" class="highcharts-tick" stroke="#C0D0E0" stroke-width="1" d="M 70 143.5 L 60 143.5" opacity="1"></path><path fill="none" class="highcharts-tick" stroke="#C0D0E0" stroke-width="1" d="M 70 89.5 L 60 89.5" opacity="1"></path><path fill="none" class="highcharts-axis-line" stroke="gray" stroke-width="1" d="M 69.5 90 L 69.5 355"></path></g><g class="highcharts-series-group"><g class="highcharts-series highcharts-series-0 highcharts-column-series " transform="translate(70,90) scale(1 1)" clip-path="url(#highcharts-dimxl6b-7)"><rect x="19.5" y="162.5" width="21" height="103" fill="rgb(0, 153, 153)" stroke="#ffffff" stroke-width="1" class="highcharts-point"></rect><rect x="104.5" y="116.5" width="21" height="149" fill="rgb(0, 153, 153)" stroke="#ffffff" stroke-width="1" class="highcharts-point"></rect><rect x="189.5" y="87.5" width="21" height="178" fill="rgb(0, 153, 153)" stroke="#ffffff" stroke-width="1" class="highcharts-point"></rect><rect x="274.5" y="88.5" width="21" height="177" fill="rgb(0, 153, 153)" stroke="#ffffff" stroke-width="1" class="highcharts-point"></rect><rect x="359.5" y="93.5" width="21" height="172" fill="rgb(0, 153, 153)" stroke="#ffffff" stroke-width="1" class="highcharts-point"></rect><rect x="444.5" y="106.5" width="21" height="159" fill="rgb(0, 153, 153)" stroke="#ffffff" stroke-width="1" class="highcharts-point"></rect></g><g class="highcharts-markers highcharts-series-0 highcharts-column-series " transform="translate(70,90) scale(1 1)" clip-path="none"></g><g class="highcharts-series highcharts-series-1 highcharts-column-series " transform="translate(70,90) scale(1 1)" clip-path="url(#highcharts-dimxl6b-7)"><rect x="44.5" y="156.5" width="21" height="109" fill="rgb(153, 77, 0)" stroke="#ffffff" stroke-width="1" class="highcharts-point"></rect><rect x="129.5" y="97.5" width="21" height="168" fill="rgb(153, 77, 0)" stroke="#ffffff" stroke-width="1" class="highcharts-point"></rect><rect x="214.5" y="52.5" width="21" height="213" fill="rgb(153, 77, 0)" stroke="#ffffff" stroke-width="1" class="highcharts-point"></rect><rect x="299.5" y="37.5" width="21" height="228" fill="rgb(153, 77, 0)" stroke="#ffffff" stroke-width="1" class="highcharts-point"></rect><rect x="384.5" y="31.5" width="21" height="234" fill="rgb(153, 77, 0)" stroke="#ffffff" stroke-width="1" class="highcharts-point"></rect><rect x="469.5" y="55.5" width="21" height="210" fill="rgb(153, 77, 0)" stroke="#ffffff" stroke-width="1" class="highcharts-point"></rect></g><g class="highcharts-markers highcharts-series-1 highcharts-column-series " transform="translate(70,90) scale(1 1)" clip-path="none"></g></g><g class="highcharts-button highcharts-contextbutton" style="cursor:pointer;" stroke-linecap="round" transform="translate(585,405)"><title>Chart context menu</title><rect fill="#ffffff" class=" highcharts-button-box" x="0.5" y="0.5" width="24" height="24" rx="2" ry="2" stroke="none" stroke-width="1"></rect><path fill="#666666" d="M 12 2 L 14 2 L 14 9 L 18 9 L 13 14 L 8 9 L 12 9 z M 3 16.9 L 3 21 L 22 21 L 22 17 L 22 17 L 22 21 L 3 21 L 3 16.9 z" class="highcharts-button-symbol" stroke="#666666" stroke-width="2"></path><text x="0" style="font-weight:normal;color:#333333;fill:#333333;" y="12"></text></g><text x="10" text-anchor="start" class="highcharts-title" style="color:#000000;font-size:14px;font-family:arial;font-weight:bold;fill:#000000;" y="21"><tspan>Median usual weekly earnings of women and men who are full-time wage and</tspan><tspan dy="17" x="10">salary workers, by age, 2016 annual averages</tspan><title>Median usual weekly earnings of women and men who are full-time wage and salary workers, by age, 2016 annual averages</title></text><text x="10" text-anchor="start" class="highcharts-subtitle" style="color:#000000;font-family:arial;font-weight:normal;font-size:12px;fill:#000000;" y="57"></text><g class="highcharts-legend" transform="translate(130,98)"><rect fill="none" class="highcharts-legend-box" rx="0" ry="0" x="0" y="0" width="558" height="25" visibility="visible"></rect><g><g><g class="highcharts-legend-item highcharts-column-series highcharts-color-undefined highcharts-series-0" transform="translate(8,3)"><text x="21" style="color:#000;font-size:12px;font-weight:bold;cursor:pointer;font-family:Calibri, Arial, Helvetica, sans-serif;fill:#000;" text-anchor="start" y="15"><tspan>Women</tspan></text><rect x="2" y="4" width="12" height="12" fill="rgb(0, 153, 153)" rx="6" ry="6" class="highcharts-point"></rect></g><g class="highcharts-legend-item highcharts-column-series highcharts-color-undefined highcharts-series-1" transform="translate(102.109375,3)"><text x="21" y="15" style="color:#000;font-size:12px;font-weight:bold;cursor:pointer;font-family:Calibri, Arial, Helvetica, sans-serif;fill:#000;" text-anchor="start"><tspan>Men</tspan></text><rect x="2" y="4" width="12" height="12" fill="rgb(153, 77, 0)" rx="6" ry="6" class="highcharts-point"></rect></g></g></g></g><g class="highcharts-axis-labels highcharts-xaxis-labels "><text x="112.5" style="color:#000000;cursor:default;font-size:12px;font-family:Calibri, Arial, Helvetica, sans-serif;font-weight:normal;background-color:#fff;fill:#000000;" text-anchor="middle" transform="translate(0,0)" y="375" opacity="1"><tspan>16 to 24</tspan></text><text x="197.5" style="color:#000000;cursor:default;font-size:12px;font-family:Calibri, Arial, Helvetica, sans-serif;font-weight:normal;background-color:#fff;fill:#000000;" text-anchor="middle" transform="translate(0,0)" y="375" opacity="1"><tspan>25 to 34</tspan></text><text x="282.5" style="color:#000000;cursor:default;font-size:12px;font-family:Calibri, Arial, Helvetica, sans-serif;font-weight:normal;background-color:#fff;fill:#000000;" text-anchor="middle" transform="translate(0,0)" y="375" opacity="1"><tspan>35 to 44</tspan></text><text x="367.5" style="color:#000000;cursor:default;font-size:12px;font-family:Calibri, Arial, Helvetica, sans-serif;font-weight:normal;background-color:#fff;fill:#000000;" text-anchor="middle" transform="translate(0,0)" y="375" opacity="1"><tspan>45 to 54</tspan></text><text x="452.5" style="color:#000000;cursor:default;font-size:12px;font-family:Calibri, Arial, Helvetica, sans-serif;font-weight:normal;background-color:#fff;fill:#000000;" text-anchor="middle" transform="translate(0,0)" y="375" opacity="1"><tspan>55 to 64</tspan></text><text x="537.5" style="color:#000000;cursor:default;font-size:12px;font-family:Calibri, Arial, Helvetica, sans-serif;font-weight:normal;background-color:#fff;fill:#000000;" text-anchor="middle" transform="translate(0,0)" y="375" opacity="1"><tspan>65 and older</tspan></text></g><g class="highcharts-axis-labels highcharts-yaxis-labels "><text x="55" style="color:#000000;cursor:default;font-size:12px;font-family:Calibri, Arial, Helvetica, sans-serif;font-weight:normal;background-color:#fff;fill:#000000;" text-anchor="end" transform="translate(0,0)" y="360" opacity="1">$0</text><text x="55" style="color:#000000;cursor:default;font-size:12px;font-family:Calibri, Arial, Helvetica, sans-serif;font-weight:normal;background-color:#fff;fill:#000000;" text-anchor="end" transform="translate(0,0)" y="307" opacity="1">$250</text><text x="55" style="color:#000000;cursor:default;font-size:12px;font-family:Calibri, Arial, Helvetica, sans-serif;font-weight:normal;background-color:#fff;fill:#000000;" text-anchor="end" transform="translate(0,0)" y="254" opacity="1">$500</text><text x="55" style="color:#000000;cursor:default;font-size:12px;font-family:Calibri, Arial, Helvetica, sans-serif;font-weight:normal;background-color:#fff;fill:#000000;" text-anchor="end" transform="translate(0,0)" y="201" opacity="1">$750</text><text x="55" style="color:#000000;cursor:default;font-size:12px;font-family:Calibri, Arial, Helvetica, sans-serif;font-weight:normal;background-color:#fff;fill:#000000;" text-anchor="end" transform="translate(0,0)" y="148" opacity="1">$1,000</text><text x="55" style="color:#000000;cursor:default;font-size:12px;font-family:Calibri, Arial, Helvetica, sans-serif;font-weight:normal;background-color:#fff;fill:#000000;" text-anchor="end" transform="translate(0,0)" y="95" opacity="1">$1,250</text></g><text x="10" class="highcharts-credits" text-anchor="start" style="cursor:default;color:#2C2C2C;font-size:9px;fill:#2C2C2C;" y="408"><tspan>Click legend items to change data display. Hover over chart to view data.</tspan><tspan x="10" dy="12">Source: U.S. Bureau of Labor Statistics.</tspan></text></svg>